<?xml version="1.0" encoding="utf-8"?>
<!-- Generator: Adobe Illustrator 22.1.0, SVG Export Plug-In . SVG Version: 6.00 Build 0)  -->
<svg version="1.1" id="Layer_1" xmlns="http://www.w3.org/2000/svg" xmlns:xlink="http://www.w3.org/1999/xlink" x="0px" y="0px"
	 viewBox="0 0 512 512" style="enable-background:new 0 0 512 512;" xml:space="preserve">
<g fill="#cecece">
	<path d="M459.2,404.6c-1.2-9.8-16.7-20.3-24.8-28c-4.5-4.4-25.5-20.3-26.7-26.3c-1.2-5.8,8.5-18.9,11.7-25.4
		c4.5-9.4,7.7-20.8,9.9-28.7c16.5-58.1,18.2-137.9-5.5-185.7c-9-18.1-33.9-43.1-49.6-54.9c-36.9-27.9-105.1-31-149.5-14.6
		c-12.4,4.6-24.4,8.6-35.3,15c-29.1,17.1-60,28.6-68.7,62.9c-21.3,9.5-27.7,36.7-26.6,68.4c0.2,6.2,3.6,13.9,2.4,19.7
		c-0.6,2.9-4.6,6.7-5.4,8.6c-10.2,24.4-2,56.3,9.8,73.6c7.1,10.5,18.9,19.7,34.5,22.2c0.6,9.3,2.9,17.3,7.2,26.7
		c2.7,6,12.9,16.7,9.1,24.4c-1.9,3.9-18.5,12.1-24,15.5c-18.5,11-32,17.8-49.1,30.2c-11.1,7.9-28.4,9-25.7,27.3
		c1.8,12.4,8.9,27.8,12.9,40.3c0.6,1.8,1.2,3.6,1.8,5.3h371c4.3-13.5,8.5-27.2,12.8-41.5C454.5,429.5,460.5,415.1,459.2,404.6
		L459.2,404.6z M212,60.6c1.6-0.4,3,0.6,4.3,2.1c-0.2,4.6-4.7,4.5-7.8,6c-4.7,5.9-11.8,8.6-17.6,15.1c-6,6.6-12.7,24.4-20.6,26.4
		c-4,1-8.5-0.7-12-0.4c-9.1,0.6-15.6,5.3-24.9,6.6C145.4,90,182.8,68.9,212,60.6z M119.8,142.9c11.9-13.1,28.2-21.2,48.2-22.8
		c10.3,26.1-7.4,57.1-0.8,85.8c2,8.7,9,22.3-2.1,22.6c0.3-24.9-30.6-40.7-53.9-26C109.6,183.6,106.9,157,119.8,142.9L119.8,142.9z
		 M152.1,318.9c-0.9-3.6-2.4-11.3-2-13.3c1.4-7.6,15-11,9.7-21.7c-9.9-0.1-12.1,9-21.2,9.9c-23.5,2.3-40.1-31.1-39-51.3
		c0.9-17.1,15.5-33.6,35.3-31.5c14.1,1.6,18.8,16.9,21.5,30.5c8.1,0.4,19.8-0.4,23.6-6.7c-0.5-15.4-7.7-27.8-7.2-41.9
		c0.9-26.6,15.4-50.6,4.2-76.8c12-27.2,47-48.6,73.1-61.5c32.2-16.1,83.4-3.3,113.7,13.9c17.3,9.8,30.2,28.7,42.5,44.6
		c-17.1-5.1-31.7,3.7-29.1,17.8c14.3-13.1,38.9-0.2,46.2,14.4c6.9,13.9,6.9,34.6,7.9,55.2c2.5,50.1-9.1,101.9-34.4,138.1
		c-6.8,9.7-12.4,20.2-21.9,26.9c-22.9,16-57.5,30.5-87.2,20.6c-39.3-13.2-57.1-39.4-78.7-69.3c0.6,16.4,12.1,30,23.6,42.6
		c9.9,11,22,23.4,34.9,28.5c-10.8-2.5-27.3-3.3-31.8,6.3c-25.1-1.7-48.4-4.2-60.4-21.3C165.9,359.3,156.4,336.5,152.1,318.9
		L152.1,318.9z M347.3,428c3.6-2.6,9.8-2.5,15.3-3.2c-4.7-2.4-11.4-3.3-17-1.9c-0.1-3.7-1.8-6-2.8-9c9.3-3.3,31.2-25.1,43.6-17.8
		c5.9,3.4,8.4,23,8.9,32.5c0.4,7.9-0.7,15.8-4,20c-16.5-0.5-31.5-2.5-44.6-6.2C347.5,437.1,345.9,431.9,347.3,428L347.3,428z
		 M332.1,410.4c-14.8,0.7-22.9-1.1-33.7-9.5c0.2-0.7,1.2-0.4,1.3-1.2c15.8,7,35.9-2.9,51.9-4.3C344.7,399.9,338.8,405.6,332.1,410.4
		L332.1,410.4z M321.5,439.6c-1.4-8.3-3.1-10.5-2.5-17.8C341,407.2,345.2,447,321.5,439.6z M229.6,416.6
		c-10.2-0.6-42.3-12.3-33.8-20.8c8.3,5.7,24.2,4.3,36.3,6.4C232.8,406,229.6,411.1,229.6,416.6L229.6,416.6z M81.7,468
		c-3.8-11.2-8.1-22.1-13-32.4c27.1-20.9,57.4-43,89.8-55.8c2.5-1,20.4,22.3,23,24.3c14.5,10.3,32.5,18.5,49.4,26.5
		c1.1,7.7,3.4,17.8,7.6,31.2c0.6,2,1.2,4.1,1.9,6.3L81.7,468L81.7,468z M293.2,473h-0.7c0.3-0.2,0.4-0.4,0.7-0.4V473z M299.8,468
		c1.8-1.2,3.8-2.5,5.6-3.8c1,1.2,1.9,2.5,2.8,3.8H299.8z M313.1,446.3c-9.5,6.4-18.1,16.1-29.3,22.2c-5.3,2.9-23.7,10.3-29.4,9
		c-3.2-0.7-3.4-4.7-4.7-8.4c-2.7-7.9-8.9-20.6-9.5-32.5c-0.7-15.1-2.2-40.4,14.1-37.3c13.1,2.5,28.4,8.5,38.6,14.2
		c6.2,3.4,9.8,7.6,19.3,8.4c-0.1,1.2-0.1,2.5-0.2,3.8c-5.2,3.4-13.5,3.3-19.2,6.2c8.4,0.4,14.9,2.4,20.7,5.2
		C313.3,439.9,313.1,443.1,313.1,446.3L313.1,446.3z M360,468h-12.3c-0.1-2.8-2.5-5.1-5.4-5.1c-2.9,0-5.2,2.3-5.4,5.1h-15.3
		c-2.5-3.9-5-7.6-7.8-11c1.8-1.9,3.5-4.1,5.3-6.1c7.9,3.3,13-4.3,19.1-3.7c6.9,0.7,12.5,10.3,22.3,9.7L360,468z M367.7,468
		c0.2-3.5,0.4-6.9,0.5-10.1c13.7-6.4,25.5,1.1,31.4,10.1H367.7L367.7,468z M441,435.5c-2,9.8-5.1,21.1-8.7,32.6
		c-0.2-0.1-0.4-0.1-0.5-0.1h-24.5c0.5-1,1.1-1.9,1.7-2.9c-2.3-5.4-7.9-7.6-9.6-13.6c10.6-20,5.7-82.1-21.3-69
		c3.8-5.5,13.7-10.1,18.3-17c11.4,9.1,18.3,17.8,29.2,27.6c6,5.3,17.6,11.7,18.8,20.3C445,418.2,442,430,441,435.5L441,435.5z
		 M226.3,145.7c4.7-13.1,23.9-30.5,39.6-28.1c6.8,1.1,15.8,7.2,10.7,15.6c-26.5-6.2-39.7,11.1-47.8,29.1
		C221.6,160.5,224.4,150.7,226.3,145.7L226.3,145.7z M388.1,201.2c7.2-3.2,19.7-0.6,26-4.7c-3.7-10.1-9.1-18.8-8.2-33.1
		c0.4,0,0.9,0,1.2,0.1c6,12.5,11.2,25.7,18.8,36.7C421,212,387.7,222.4,388.1,201.2z M303,203.5c-6-9.6-16.7-28.6-12.7-39.8
		c5.7,10.5,7.6,21.5,15.6,29.3c3.6,3.5,10.7,7.9,7.2,17.8c-0.8,2.4-6.9,7.6-10.3,8.5c-12.7,3.8-42.1,0.8-32.2-15
		C281.1,204.9,295.2,211.1,303,203.5L303,203.5z M327,265.1c3.3,5.8,1.2,16.4,10.6,18.1c17.8,3,38.3-10.8,51.1-15.6
		c7.9-13.4-0.7-18.2-7.8-26.8c-14.6-17.6-34.1-39.4-33.4-65.7c5.9-4.3,6.4,6.5,7.2,8.5c7.6,17.8,26.7,40.6,40.7,55.8
		c3.4,3.8,9.1,7.4,9.7,9.8c1.8,7.2-4.7,15.8-4,20.7c-19.1,12.2-40.3,25.6-71.6,22.5C323.1,286.5,320.5,273.6,327,265.1L327,265.1z
		 M150.1,257c-6-3.4-7.4-18.5-14.4-18.8c-10-0.6-8.2,19.5-8.2,31.2c-6.9-6.2-8.1-25.6-3.1-35.4c-5.8-2.8-8.4,3.2-11.5,5.2
		C117,209.2,156.7,225.3,150.1,257z M413.5,282.3c-8.9,16.9-21.5,35.5-47.5,36c-0.5-5.5-1-13.7,0-17.1
		C385.9,299.4,398.2,289.3,413.5,282.3z M288.7,293.2c16.6,8.7,47.1,9.7,69.7,9c1.2,4.9,1.1,11.1,1.2,17.1
		C330.6,320.8,296.4,313.6,288.7,293.2L288.7,293.2z M369.8,334.3c-1.5,3.8-4.7,8.2-8.6,9.8c-10.6,4.3-40.1,7.6-54.9-0.3
		c-9.4-5-15.4-16.3-20.6-22.9c-2.5-3.2-14.9-11.3-0.2-11.3C297.1,338.3,336.5,335.1,369.8,334.3L369.8,334.3z"/>
</g>
</svg>
